<svg width="64" height="64" viewBox="0 0 64 64" fill="none" xmlns="http://www.w3.org/2000/svg">
  <defs>
    <linearGradient id="edgeOuter" x1="10" y1="11" x2="55" y2="53" gradientUnits="userSpaceOnUse">
      <stop stop-color="#33C6F4"/>
      <stop offset="1" stop-color="#4ADE80"/>
    </linearGradient>
    <linearGradient id="edgeInner" x1="18" y1="22" x2="43" y2="49" gradientUnits="userSpaceOnUse">
      <stop stop-color="#2C8FE8"/>
      <stop offset="1" stop-color="#1D4F91"/>
    </linearGradient>
  </defs>
  <path d="M53.5 43.5C53.5 52.6127 45.7317 58 35.5 58C20.3122 58 8 47.0156 8 32.5C8 18.4176 19.8056 8 34.5 8C44.9283 8 53.5 14.0282 56 22.5C47.8 17.4 36.9 17.8 29.4 24.1C25.2 27.5 22.5 32.1 22.5 37.4C22.5 44.4 27.8 50 35.8 50C42.6 50 47.1 46.9 49.5 42.7C50.6 40.8 51.6 40.7 53.5 43.5Z" fill="url(#edgeOuter)"/>
  <path d="M56 22.5C55.2 33.8 48.8 40.5 39 40.5C31.6 40.5 26.7 35.9 26.7 29.7C26.7 23.6 31.8 19.4 39.1 19.4C45.2 19.4 50.9 21.3 56 22.5Z" fill="url(#edgeInner)"/>
</svg>
