<svg width="64" height="64" viewBox="0 0 64 64" fill="none" xmlns="http://www.w3.org/2000/svg">
  <path d="M18 10C13.5817 10 10 13.5817 10 18V46C10 50.4183 13.5817 54 18 54H46C50.4183 54 54 50.4183 54 46V18C54 13.5817 50.4183 10 46 10H18Z" fill="#EF4444"/>
  <path d="M21.5 20.5C23.1667 20.5 24.5 21.2887 25.5 22.866L32.0001 33.2543L38.5001 22.866C39.5001 21.2887 40.8334 20.5 42.5001 20.5C45.3751 20.5 47.143 23.6581 45.6814 26.0879L35.5688 42.9048C34.7494 44.2671 33.5598 45 32.0001 45C30.4404 45 29.2508 44.2671 28.4314 42.9048L18.3188 26.0879C16.8572 23.6581 18.6251 20.5 21.5 20.5Z" fill="white"/>
</svg>
